<svg xmlns="http://www.w3.org/2000/svg" viewBox="0 0 1500 800"><defs><style>.cls-1{fill:#11182a;}.cls-2{fill:#334155;}.cls-3{fill:#824292;}.cls-4{fill:#626fa0;}</style></defs><g id="Capa_2" data-name="Capa 2"><g id="Capa_1-2" data-name="Capa 1"><rect class="cls-1" width="1500" height="800"/><path class="cls-2" d="M111,366.42c.45,4.54-36.23,29.15-22.78,62.77-1.41,1.4-80.16-84.38-22.5-196.88,0,0-11.25,88.59,54.84,111.09s168.76,16.88,202.51-199.69C352.6,25.58,494.64,31.21,494.64,31.21S431.36,87.46,432.76,124c4.22,18.28,30.94-4.22,30.94-4.22s-8.44,46.41-33.75,57.66c2.81,1.41,30.94,5.63,40.78-12.66-1.4,4.22-12.65,70.32-67.5,85.79,4.22,0,46.41,21.09,77.35-8.44,0,2.81-9.85,94.22-140.63,98.44,0,5.63,85.78,32.35,146.25-7,1.41-1.41-78.75,133.6-260.16,66.1,1.4,2.81,2.81,38,61.87,47.81C287.91,447.47,178.52,495.15,111,366.42Zm243-79.27c15.07-52.75,26.79-150.31,49.15-182.6-26.46,14.08-53.6,64.87-63.21,117.91C319.39,335.84,235.88,363.09,235.88,363.09S337.13,346.22,354,287.15Z"/><path class="cls-2" d="M1414.07,560.24c-.28-2.83,22.54-18.14,14.17-39.06.88-.88,49.88,52.5,14,122.5,0,0,7-55.13-34.12-69.13s-105-10.5-126,124.26c-18.37,73.5-106.75,70-106.75,70s39.38-35,38.5-57.75c-2.62-11.38-19.25,2.62-19.25,2.62s5.25-28.87,21-35.87c-1.75-.88-19.25-3.5-25.37,7.87.87-2.62,7.87-43.75,42-53.37-2.63,0-28.88-13.13-48.13,5.25,0-1.75,6.13-58.63,87.5-61.26,0-3.5-53.37-20.12-91,4.38-.87.87,49-83.13,161.88-41.13-.87-1.75-1.75-23.62-38.5-29.75C1304,509.8,1372.06,480.14,1414.07,560.24Zm-151.21,49.31c-9.37,32.83-16.66,93.53-30.58,113.62,16.47-8.76,33.35-40.36,39.33-73.36,12.79-70.55,64.76-87.51,64.76-87.51S1273.36,572.8,1262.86,609.55Z"/><polygon class="cls-3" points="528.52 482.11 569.25 549.33 593.06 549.33 552.18 482.11 528.52 482.11"/><polygon class="cls-3" points="528.52 549.33 548.03 549.33 548.03 520.45 528.52 488.49 528.52 549.33"/><polygon class="cls-3" points="573.55 510.83 593.06 542.94 593.06 482.11 573.55 482.11 573.55 510.83"/><polygon class="cls-3" points="623.45 485.15 599.44 549.33 621.07 549.33 633.38 511.84 623.45 485.15"/><polygon class="cls-3" points="625.88 482.11 643.86 528.66 631.71 528.66 627.05 541.98 649.03 541.98 651.87 549.33 674.51 549.33 647.71 482.11 625.88 482.11"/><polygon class="cls-3" points="722.42 500.95 743.04 500.95 743.04 493.81 731.39 482.11 704.49 482.11 704.49 494.22 722.42 494.22 722.42 500.95"/><polygon class="cls-3" points="700.95 505.97 700.95 482.11 693.35 482.11 679.88 495.53 679.88 510.68 693.35 524.15 722.42 524.15 722.42 549.33 731.44 549.33 744.86 535.9 744.86 519.44 731.85 505.97 700.95 505.97"/><polygon class="cls-3" points="702.26 529.17 679.88 529.17 679.88 535.9 691.17 549.33 718.88 549.33 718.88 537.17 702.26 537.17 702.26 529.17"/><rect class="cls-3" x="755.7" y="482.11" width="22.39" height="67.22"/><polygon class="cls-3" points="798.1 508.55 781.64 508.55 781.64 522.02 798.25 522.02 798.25 549.33 820.69 549.33 820.69 482.11 798.1 482.11 798.1 508.55"/><polygon class="cls-3" points="830.92 495.53 830.92 535.9 844.55 549.33 861.77 549.33 861.77 535.65 853.36 535.65 853.36 495.74 861.77 495.74 861.77 482.11 844.55 482.11 830.92 495.53"/><polygon class="cls-3" points="865.32 482.11 865.32 495.74 873.88 495.74 873.88 535.65 865.32 535.65 865.32 549.33 882.69 549.33 896.27 535.9 896.27 495.53 882.69 482.11 865.32 482.11"/><polygon class="cls-3" points="961.03 530.06 957.89 533.2 939.8 533.2 947.57 549.33 971.48 549.33 961.03 530.06"/><rect class="cls-3" x="906.5" y="482.11" width="22.39" height="67.22"/><polygon class="cls-3" points="970.48 516.18 970.48 496.02 957.01 482.6 931.43 482.6 931.43 496.02 948.25 496.02 948.25 516.64 931.43 516.64 931.43 529.65 957.01 529.65 970.48 516.18"/><path class="cls-3" d="M725,275.29c-.79.08-5.06-6.29-10.9-4-.24-.24,14.65-13.92,34.19-3.9,0,0-15.39-2-19.29,9.52s-2.93,29.3,34.67,35.16c20.51,5.13,19.53,29.79,19.53,29.79s-9.76-11-16.11-10.74c-3.18.73.73,5.37.73,5.37s-8.06-1.47-10-5.86c-.24.49-1,5.37,2.2,7.08-.74-.24-12.21-2.2-14.9-11.72,0,.73-3.66,8.06,1.47,13.43-.49,0-16.36-1.71-17.1-24.42-1,0-5.61,14.9,1.23,25.4.24.24-23.2-13.68-11.48-45.18-.49.25-6.59.49-8.3,10.75C711,306,702.68,287,725,275.29Zm13.76,42.19c9.16,2.62,26.1,4.65,31.71,8.54-2.45-4.6-11.26-9.31-20.47-11C730.34,311.47,725.61,297,725.61,297S728.54,314.55,738.79,317.48Z"/><path class="cls-4" d="M783.1,278.55c-.51.07-3.67,2.91-3.67,2.91s-.48-5.79-3.7-5.66c-.88.43-3.68,3.63-3.68,3.63s-.92-5.93-5-5.37c-3.95.86-13.72,5.85-6.53,15.62.22.08-4.5,6.05.24,7.91,3.22.6,9.89-1,9.89-1s-9,7.19-11.53,6.59-6.61-7.87-6.59-10.8a88.19,88.19,0,0,0-1.82-11.58,10.71,10.71,0,0,0-4.82,3.51c-7.56,9.28,5.87,20.76,5.87,20.76s-10.26,0-12.21-8.55c0,.49-1,4.15-1,4.15a12.34,12.34,0,0,1-3.17-12c-.74.73-3.18,3.91-3.18,3.91s-3.91-10.75,6.11-13.19c-.25,0-5.38-1.22-5.38-1.22s7.57-11.72,17.34-6.35h.11a6.17,6.17,0,0,1,6.38-2.35c-2.56-.54-9.23-2.17-11.62-5.79-2.9-4.4-6.36-11.45-15.73-11.21,0,0,4-5.25,13.67,2.2s16,8.15,20.29,7.88,6.8,1.58,8.1,4.22c-2.91-2-5.93.19-5.93.19l9.2,3.13-11.66-18.88,3.63,4.41s8.78,12.27,12,14.34a27.78,27.78,0,0,0,5.4,2.82l2.79-1.74,1.08,3.3,2.33,1a6.69,6.69,0,0,1,0,3.65c-.59,1.76-4.94,6.63-7.21,6.84C783.06,285.87,786.39,279.67,783.1,278.55Zm-25.52-8.91.19.05Z"/><path class="cls-3" d="M762.53,280.11c9.57,3.5,2.69,15.09,2.69,15.09l-4.54.41,1.19-2.77c1.19-2.78,0-4.91-1.49-7.84C759.37,282.21,762.53,280.11,762.53,280.11Z"/></g></g></svg>