<svg xmlns="http://www.w3.org/2000/svg" viewBox="0 0 500 500"><defs><style>.cls-1{fill:#0f172a;}.cls-2{fill:#824292;}.cls-3{fill:#626fa0;}</style></defs><g id="Capa_2" data-name="Capa 2"><g id="Capa_1-2" data-name="Capa 1"><rect class="cls-1" width="500" height="500"/><path class="cls-2" d="M161,175.18c-2.81.28-18-22.41-38.83-14.09-.87-.87,52.2-49.59,121.79-13.92,0,0-54.81-7-68.72,33.93S164.84,285.5,298.81,306.38c73.08,18.27,69.6,106.13,69.6,106.13s-34.8-39.15-57.42-38.28c-11.31,2.61,2.61,19.14,2.61,19.14s-28.71-5.22-35.67-20.88c-.87,1.74-3.48,19.14,7.83,25.23-2.61-.87-43.5-7.83-53.07-41.76,0,2.61-13.05,28.71,5.22,47.85-1.74,0-58.28-6.09-60.89-87-3.48,0-20,53.06,4.35,90.47.87.87-82.65-48.72-40.89-160.94-1.74.87-23.49,1.74-29.58,38.28C110.9,284.63,81.4,217,161,175.18Zm49,150.34c32.64,9.32,93,16.57,113,30.4-8.7-16.37-40.12-33.16-72.94-39.1-70.14-12.72-87-64.38-87-64.38S173.54,315.08,210.07,325.52Z"/><path class="cls-3" d="M367.94,186.81c-1.83.25-13.1,10.35-13.1,10.35s-1.7-20.61-13.17-20.16c-3.14,1.55-13.11,13-13.11,13s-3.26-21.14-17.88-19.14c-14.09,3-48.87,20.82-23.28,55.64.78.27-16,21.54.87,28.17,11.46,2.15,35.22-3.7,35.22-3.7s-32.22,25.61-41.07,23.47-23.55-28-23.49-38.46c0-6.54-3.32-26.2-6.47-41.26-5.88,2-11.73,5.87-17.16,12.52-27,33.06,20.88,73.95,20.88,73.95s-36.54,0-43.5-30.45c0,1.74-3.48,14.79-3.48,14.79S190.94,249,197.89,222.86c-2.61,2.61-11.31,13.92-11.31,13.92s-13.91-38.28,21.75-47c-.87,0-19.14-4.35-19.14-4.35s27-41.76,61.77-22.62a2.87,2.87,0,0,1,.41,0c4-5.62,11.36-10.27,22.73-8.37-9.12-1.95-32.92-7.73-41.4-20.63-10.33-15.7-22.69-40.8-56.06-40,0,0,14.19-18.68,48.7,7.86s57.17,29,72.3,28.08,24.21,5.62,28.85,15c-10.35-7-21.13.65-21.13.65l32.78,11.15L296.58,89.39l12.94,15.73s31.28,43.72,42.7,51.09,19.23,10,19.23,10l9.95-6.2,3.84,11.76,8.32,3.7s2,6.79-.08,13-17.61,23.62-25.7,24.35C367.78,212.88,379.65,190.79,367.94,186.81ZM277,155.08c.23,0,.44.09.67.16A5.55,5.55,0,0,0,277,155.08Z"/><path class="cls-2" d="M294.65,192.36c34.08,12.46,9.58,53.76,9.58,53.76l-16.17,1.47,4.23-9.89c4.23-9.88-.16-17.46-5.31-27.92C283.39,199.85,294.65,192.36,294.65,192.36Z"/></g></g></svg>