<svg xmlns="http://www.w3.org/2000/svg" viewBox="0 0 81.08 91.23"><defs><style>.cls-1{fill:#824292;}.cls-2{fill:#626fa0;}</style></defs><g id="Capa_2" data-name="Capa 2"><g id="Capa_1-2" data-name="Capa 1"><path class="cls-1" d="M15.57,24.61c-.79.08-5.06-6.29-10.9-3.95-.24-.25,14.65-13.92,34.19-3.91,0,0-15.38-1.95-19.29,9.53s-2.93,29.3,34.67,35.16c20.51,5.13,19.54,29.79,19.54,29.79S64,80.24,57.66,80.48c-3.17.74.73,5.38.73,5.38s-8-1.47-10-5.86c-.24.48-1,5.37,2.2,7.08-.73-.25-12.21-2.2-14.9-11.72,0,.73-3.66,8,1.47,13.43-.49,0-16.36-1.71-17.09-24.42-1,0-5.62,14.89,1.22,25.39C21.52,90-1.92,76.09,9.8,44.59c-.49.24-6.59.49-8.3,10.74C1.5,55.33-6.78,36.34,15.57,24.61Zm13.77,42.2c9.15,2.62,26.09,4.65,31.7,8.53-2.44-4.59-11.26-9.3-20.47-11C20.88,60.8,16.15,46.3,16.15,46.3S19.08,63.88,29.34,66.81Z"/><path class="cls-2" d="M73.65,27.88c-.52.07-3.68,2.9-3.68,2.9s-.48-5.78-3.7-5.65c-.88.43-3.68,3.63-3.68,3.63s-.91-5.93-5-5.37c-4,.85-13.71,5.84-6.53,15.62.22.07-4.5,6,.24,7.9,3.22.61,9.89-1,9.89-1s-9.05,7.19-11.53,6.59S43,44.59,43.05,41.67a86,86,0,0,0-1.82-11.58,10.48,10.48,0,0,0-4.81,3.51c-7.57,9.28,5.86,20.76,5.86,20.76s-10.26,0-12.21-8.55c0,.49-1,4.15-1,4.15a12.34,12.34,0,0,1-3.17-12c-.74.73-3.18,3.9-3.18,3.9s-3.9-10.74,6.11-13.18c-.25,0-5.37-1.22-5.37-1.22S31,15.78,40.81,21.15h.12a6.14,6.14,0,0,1,6.38-2.35c-2.56-.55-9.24-2.17-11.62-5.79C32.79,8.6,29.32,1.56,20,1.79c0,0,4-5.24,13.67,2.21s16.05,8.15,20.29,7.88,6.8,1.58,8.1,4.22c-2.9-2-5.93.18-5.93.18l9.2,3.13L53.62.54,57.25,5s8.78,12.27,12,14.34a27.3,27.3,0,0,0,5.4,2.81l2.79-1.74,1.08,3.3,2.34,1a6.78,6.78,0,0,1,0,3.66c-.59,1.75-4.94,6.63-7.21,6.83C73.6,35.19,76.93,29,73.65,27.88ZM48.12,19l.19.05Z"/><path class="cls-1" d="M53.07,29.43c9.57,3.5,2.69,15.09,2.69,15.09l-4.54.42,1.19-2.78c1.19-2.77,0-4.9-1.49-7.84C49.92,31.54,53.07,29.43,53.07,29.43Z"/></g></g></svg>